<svg version="1.2" xmlns="http://www.w3.org/2000/svg" viewBox="0 0 277 233" width="277" height="233"><style>.a{fill:#af3c54}.b{fill:#d3395a}.c{fill:#7a2c2c}.d{fill:#c0dfed}.e{fill:#fff}</style><path class="a" d="m21.2 131.3c-0.7-30.9-7.5-92.6 19.9-114.5 5.8-4.7 13.4-7 21.9-7.9-2.8 1.8-5.4 3.5-6.6 4.7-11.2 11.7-14.4 26-16.5 41.4-4.2 31.4-2.1 63.8-3.7 95.1-0.5 10.7 2.1 32.5-8.5 35.6q-1.6 0.6-3 0.6c-0.7-3.6-1-7.7-1.4-12.5-1.4-14.4-1.4-28.8-2.1-42.5z"/><path class="b" d="m36.2 150.1c1.6-31.3-0.5-63.7 3.7-95.1 2.1-15.4 5.3-29.7 16.5-41.4 1.2-1.2 3.8-2.9 6.6-4.7 23.9-2.4 55.2 7.1 73.4 10.6 37.7 8.3 76.1 24.7 100 56.2l-65.8 46.6c-14.4 19.2-45.9 34.3-66.4 46-37.1 21.2-30.2-19.9-33.6-41.8-2.1 2.7-8.9 14.4-13.1 11.6-3.4-2 0-17.8 0-21.2-12.3 27.4-14.3 54.8-15.7 85-11.9-2.4-15.6-7.5-17.1-15.6q1.4 0 3-0.6c10.6-3.1 8-24.9 8.5-35.6z"/><path class="c" d="m82.9 117.5l2.9-3.7 2.7-3.8q2.7-3.8 5.2-7.8 2.4-4 4.7-8.2l2.1-4.2 1.9-4.3 1.8-4.4 1.5-4.6c0.5-1.5 0.9-3 1.3-4.6 0.4-1.5 0.7-3.1 1-4.7 0.2-1.5 0.4-3.1 0.6-4.7 0.1-1.6 0.2-3.2 0.3-4.8 0-1.7-0.1-3.3-0.1-4.9l-0.6-4.8-0.1-0.1c-0.1-1-1-1.7-2-1.6q-0.4 0-0.7 0.2c-1.3 0.8-2.6 1.5-3.8 2.3-1.1 0.9-2.3 1.8-3.4 2.8-0.9 1.1-2 2.1-2.8 3.3-0.8 1.2-1.7 2.3-2.3 3.6-0.7 1.2-1.4 2.4-2 3.7-0.5 1.3-1.1 2.6-1.6 3.9-0.4 1.3-0.9 2.6-1.3 3.9l-1.2 4q-1.1 3.9-2 7.9l-1.9 7.9c-0.6 2.7-1.3 5.3-2.1 7.8-0.4 1.3-0.9 2.6-1.3 3.9-0.5 1.2-1.1 2.5-1.6 3.7 0.7-1.2 1.5-2.3 2.1-3.5 0.6-1.2 1.2-2.4 1.8-3.7 1-2.5 2-5.1 2.9-7.7 1.7-5.1 3.2-10.4 5-15.4l1.3-3.8c0.4-1.3 1-2.5 1.5-3.7 0.4-1.3 1.1-2.4 1.6-3.6 0.6-1.2 1.3-2.3 1.9-3.4 0.6-1.2 1.5-2.1 2.2-3.2 0.8-1 1.7-1.9 2.5-2.8 0.9-0.9 2-1.6 2.9-2.4 1.1-0.7 2.2-1.3 3.2-1.9l-2.7-1.4 0.5 4.4c0 1.5 0.1 3 0.1 4.5 0 1.5-0.1 3-0.2 4.5-0.2 1.5-0.3 3-0.5 4.5l-0.9 4.5c-0.3 1.5-0.7 3-1 4.4l-1.4 4.4-1.5 4.4-1.6 4.3-1.9 4.2q-1.9 4.2-4 8.4-2.1 4.1-4.4 8.2z"/><path class="c" d="m67.1 105.9c0 0 1.3-4.5 2.6-11.3 0.7-3.3 1.5-7.3 2.3-11.5 0.9-4.2 1.7-8.7 2.7-13.1 0.5-2.3 0.9-4.5 1.5-6.7 0.6-2.1 1.1-4.3 1.6-6.3q0.9-3.1 1.7-5.9c0.7-1.8 1.1-3.6 1.8-5.2 0.6-1.6 1.1-3.1 1.6-4.4 0.6-1.3 1-2.4 1.4-3.3 0.9-1.8 1.3-2.9 1.3-2.9 0 0-0.7 0.9-1.9 2.5-0.7 0.8-1.4 1.8-2.1 3-0.8 1.2-1.6 2.6-2.4 4.2-0.9 1.5-1.6 3.2-2.5 5.1-0.7 1.8-1.6 3.8-2.2 5.8-0.7 2.1-1.5 4.3-2 6.5-0.7 2.2-1.2 4.5-1.7 6.7-0.4 2.3-0.9 4.6-1.3 6.8-0.4 2.3-0.6 4.5-1 6.6-0.5 4.3-0.8 8.4-1 11.8-0.5 6.9-0.4 11.6-0.4 11.6z"/><path class="c" d="m125.4 90.1c0 0-2 1.1-4.7 3.1q-1 0.8-2.1 1.7c-0.8 0.6-1.6 1.2-2.3 1.8-1.6 1.4-3.3 2.7-4.9 4.2-1.7 1.3-3.3 2.8-4.8 4.1-0.8 0.6-1.5 1.3-2.3 1.9q-1.1 0.8-2 1.6c-1.2 1.1-2.4 1.9-3.1 2.5-0.8 0.7-1.2 1.1-1.2 1.1 0 0 0.5-0.1 1.5-0.4 0.5-0.1 1.1-0.2 1.8-0.4 0.6-0.2 1.4-0.4 2.2-0.8q1.2-0.5 2.5-1.1c0.9-0.4 1.7-1 2.6-1.6 0.9-0.5 1.9-1.1 2.8-1.8q1.3-1 2.6-2.1 1.3-1.1 2.5-2.3c0.8-0.7 1.5-1.6 2.2-2.3 1.4-1.6 2.6-3.1 3.6-4.4 2-2.7 3.1-4.8 3.1-4.8z"/><path class="d" d="m12.7 177.5c3.4-3 7.7-5 12.3-5.9-17.2 13.2-8 50.1 18.2 53.4-14.9 6.5-30.3 0.7-37.1-14.7-4.8-10.9-2.2-25 6.6-32.8z"/><path class="e" d="m25 171.6c2.1-0.5 4.4-0.7 6.6-0.7 8.9 0 17.7 3.6 22.8 10.7 9.2 12.7 5.2 34.6-8.5 42.1q-1.3 0.7-2.7 1.3c-26.2-3.3-35.4-40.2-18.2-53.4z"/><path class="e" d="m111.7 168.7c-10.1-8-18.3-20.2-15.5-31 10.6-9.1 23.2-17.4 35.1-24.9 23.5-15.6 50-34.2 76.9-42.5 16.1-4.9 31.3-5.9 44 7.3 7.2 7.7 14.2 20.4 14.4 31 0.2 9-6.4 12.6-13.4 16.4-27.2 15-53.5 30.9-81.4 44.7-4.3 2.1-8.5 4.4-12.6 6.9-16.5 3-33.5 3.1-47.5-7.9z"/><path class="d" d="m92.7 140.7q1.7-1.5 3.5-3c-2.8 10.8 5.4 23 15.5 31 14 11 31 10.9 47.5 7.9-9.6 5.6-19 11.8-28.9 17-7.5 3.8-16.9 9-26.1 10.6-6.1 1-12.2 0.5-17.6-2.9-8.4-5.4-15.4-14.8-18.4-24.3-4.4-13.2 15.6-28.4 24.5-36.3z"/></svg>